<?xml version="1.0" encoding="UTF-8"?>
<svg width="32px" height="27px" viewBox="0 0 32 27" version="1.1" xmlns="http://www.w3.org/2000/svg" xmlns:xlink="http://www.w3.org/1999/xlink">
    <!-- Generator: Sketch 47.1 (45422) - http://www.bohemiancoding.com/sketch -->
    <title>Group</title>
    <desc>Created with Sketch.</desc>
    <defs></defs>
    <g id="Page-1" stroke="none" stroke-width="1" fill="none" fill-rule="evenodd">
        <g id="Artboard" transform="translate(-1150.000000, -734.000000)">
            <g id="Page-1" transform="translate(1146.000000, 730.000000)">
                <g id="Group" transform="translate(4.000000, 4.000000)">
                    <path d="M18.27328,11.4919163 C18.2642133,11.4913653 18.2551467,11.4908143 18.2466133,11.4902633 C18.2466133,11.2819776 18.2439467,11.0736918 18.2471467,10.8654061 C18.24928,10.7507939 18.20288,10.6962429 18.0903467,10.7023041 C17.7143467,10.7237939 17.33728,10.7353653 16.9623467,10.7678755 C16.27488,10.8262837 15.6039467,10.9645898 14.9634133,11.241202 C14.2290133,11.5591408 13.6455467,12.051202 13.34048,12.8253857 C13.0162133,13.6491612 12.9890133,14.4993857 13.2551467,15.3474061 C13.4023467,15.8152224 13.66048,16.2180184 14.0887467,16.4626714 C14.9095467,16.9321408 15.72928,16.8616102 16.4978133,16.3541204 C17.51968,15.6796714 17.99168,14.6371408 18.15008,13.4386714 C18.23488,12.7956306 18.23488,12.1410184 18.27328,11.4919163 M18.98368,17.9190184 C18.8375467,18.0556714 18.6967467,18.1868143 18.5570133,18.3190592 C17.8311467,19.0028755 17.0615467,19.6189163 16.1314133,19.9847939 C15.5047467,20.231651 14.8562133,20.3771204 14.1858133,20.4134878 C13.8194133,20.4338755 13.45248,20.4807122 13.08768,20.4680388 C11.9159467,20.4278143 10.8023467,20.1710388 9.83168,19.4431408 C9.16928,18.9455694 8.66901333,18.3074878 8.33994667,17.5333041 C8.03594667,16.8175286 7.88554667,16.0659367 7.84714667,15.2823857 C7.81994667,14.7346714 7.84288,14.1935694 7.92661333,13.6563245 C8.03968,12.9284265 8.27434667,12.2413041 8.63701333,11.6026714 C9.10314667,10.780549 9.73728,10.1226306 10.50048,9.60026327 C11.0983467,9.19140612 11.7522133,8.89771224 12.4370133,8.67730408 C13.2679467,8.40895714 14.1202133,8.24089592 14.9799467,8.11746735 C15.5879467,8.0298551 16.2002133,7.97365102 16.81088,7.90642653 C17.22688,7.86014082 17.64288,7.82046735 18.05888,7.77528367 C18.1559467,7.76536531 18.2503467,7.74056939 18.2450133,7.60887551 C18.22048,6.97520204 18.2338133,6.33656939 18.15968,5.70895714 C18.0567467,4.83669184 17.5618133,4.25536531 16.7394133,4.01236531 C15.7415467,3.71812041 14.80128,3.86799796 13.9570133,4.50277347 C13.5250133,4.82787551 13.2679467,5.28632449 13.1239467,5.8186102 C13.0679467,6.02524286 12.9890133,6.23407959 12.8775467,6.41371224 C12.74848,6.62144694 12.53408,6.68756939 12.2919467,6.65946735 C11.4503467,6.56193673 10.6087467,6.46881429 9.76661333,6.37569184 C9.52554667,6.34869184 9.28341333,6.3288551 9.04181333,6.30350816 C8.61301333,6.25832449 8.34048,5.88638571 8.42901333,5.4565898 C8.56768,4.77938571 8.77568,4.12752857 9.10848,3.52250816 C9.53621333,2.74501837 10.10048,2.09701837 10.8066133,1.57520204 C11.6306133,0.965773469 12.54688,0.580059184 13.52448,0.334855102 C14.2951467,0.141997959 15.0759467,0.047222449 15.8690133,0.0114061224 C16.6530133,-0.0238591837 17.4295467,0.022977551 18.19808,0.161834694 C19.38688,0.377283673 20.5154133,0.766855102 21.47328,1.56032449 C22.3527467,2.28877347 22.9026133,3.23046735 23.12288,4.37714082 C23.2727467,5.15573265 23.3079467,5.94314082 23.3074133,6.7338551 C23.30688,9.0205898 23.3111467,11.3073245 23.3058133,13.5940592 C23.30368,14.5037939 23.5751467,15.3132429 24.0935467,16.0411408 C24.25568,16.2687122 24.43008,16.4880184 24.5831467,16.7227531 C24.6706133,16.8577531 24.75168,17.0081816 24.79008,17.1635694 C24.8647467,17.4682837 24.7218133,17.6908959 24.4967467,17.8843041 C23.65088,18.6111 22.81088,19.3456102 21.97248,20.0812224 C21.6818133,20.3363449 21.27488,20.4851204 20.8423467,20.1115286 C20.1938133,19.5511408 19.6370133,18.9136102 19.1794133,18.1807531 C19.1346133,18.1091204 19.08608,18.0396918 19.03808,17.9702633 C19.0295467,17.9575898 19.01568,17.9487735 18.98368,17.9190184" id="Fill-1" fill="#FFFFFF"></path>
                    <path d="M28.35088,20.9871 C27.7807467,21.0388959 27.21008,21.0901408 26.6399467,21.1430388 C26.4143467,21.1639776 26.1887467,21.1920796 25.9626133,21.2135694 C25.83088,21.2262429 25.7050133,21.2053041 25.6527467,21.0603857 C25.5978133,20.9083041 25.6842133,20.7909367 25.7983467,20.7231612 C26.11568,20.5347122 26.4303467,20.3341408 26.7663467,20.1892224 C27.8415467,19.7258143 28.97808,19.6756714 30.11888,19.7500592 C30.5039467,19.7754061 30.8842133,19.906549 31.2623467,20.0073857 C31.4927467,20.0691 31.5791467,20.2658143 31.59568,20.4955898 C31.6319467,20.9937122 31.58448,21.4852224 31.4746133,21.9712224 C31.25808,22.9272429 30.90288,23.8204469 30.34608,24.6205286 C30.1071467,24.9632633 29.8463467,25.2878143 29.5071467,25.5335694 C29.4607467,25.5677327 29.4138133,25.6041 29.3615467,25.6233857 C29.1407467,25.7043857 28.9834133,25.576549 29.0410133,25.3429163 C29.0943467,25.1280184 29.19408,24.9252429 29.26448,24.714202 C29.49968,24.0138551 29.74128,23.3162633 29.9578133,22.6098551 C30.0314133,22.3690592 30.0522133,22.1078755 30.0687467,21.8538551 C30.09648,21.4240592 29.9450133,21.2141204 29.5386133,21.1193449 C29.3135467,21.066998 29.08048,21.0455082 28.85008,21.0256714 C28.68528,21.0113449 28.51888,21.0223653 28.3535467,21.0223653 C28.35248,21.0107939 28.3514133,20.9986714 28.35088,20.9871" id="Fill-6" fill="#F7AF34"></path>
                    <path d="M15.68992,26.968702 C14.77312,26.9091918 13.8520533,26.8838449 12.9400533,26.7786 C12.12672,26.6849265 11.3208533,26.5152122 10.5160533,26.3554163 C9.50058667,26.1537429 8.51445333,25.8336 7.54272,25.4737837 C6.41685333,25.0566612 5.32725333,24.5524776 4.28885333,23.9408449 C3.61205333,23.5424571 2.94912,23.1143143 2.30538667,22.6613755 C1.72565333,22.2530694 1.17792,21.7957224 0.62112,21.3532531 C0.449386667,21.217151 0.295253333,21.0573551 0.132053333,20.9102327 C0.0301866667,20.8182122 -0.00821333333,20.703049 0.00138666667,20.5663959 C0.0120533333,20.407702 0.111786667,20.3013551 0.265386667,20.3211918 C0.375253333,20.3344163 0.490986667,20.3680286 0.586986667,20.4247837 C1.73418667,21.0981306 2.92352,21.6805592 4.14752,22.188049 C5.20352,22.6255592 6.27285333,23.0206408 7.37258667,23.3226 C8.10912,23.5248245 8.84778667,23.7226408 9.59285333,23.888498 C10.2168533,24.0279061 10.8493867,24.1287429 11.4813867,24.2279265 C12.7021867,24.4202327 13.92992,24.5414571 15.1661867,24.5513755 C15.6413867,24.5552327 16.1176533,24.5943551 16.5917867,24.5756204 C17.4008533,24.5431102 18.2109867,24.4951714 19.0173867,24.4213347 C19.73152,24.3563143 20.4440533,24.2648449 21.15232,24.1513347 C21.72192,24.0598653 22.28512,23.9265184 22.8477867,23.7953755 C23.3912533,23.6691918 23.9336533,23.5358449 24.4701867,23.3815592 C24.95712,23.242151 25.4397867,23.0840082 25.9165867,22.9098857 C26.5928533,22.6635796 27.2600533,22.3902735 27.9352533,22.1401102 C28.0776533,22.0872122 28.23872,22.0519469 28.3869867,22.0646204 C28.5757867,22.0806 28.7453867,22.1748245 28.80672,22.3891714 C28.8744533,22.6261102 28.77312,22.8200694 28.6120533,22.9600286 C28.4040533,23.1413143 28.17152,23.294498 27.9405867,23.4460286 C27.0888533,24.0058653 26.1976533,24.4913143 25.2696533,24.9007224 C24.4477867,25.2632939 23.6168533,25.6016204 22.75232,25.8440694 C22.1704533,26.0071714 21.5933867,26.1917633 21.00512,26.3273143 C20.39712,26.4672735 19.7800533,26.5686612 19.1645867,26.671151 C18.01472,26.8618041 16.85792,26.9598857 15.6925867,26.9196612 C15.69152,26.9361918 15.6904533,26.9521714 15.68992,26.968702" id="Fill-3" fill="#F7AF34"></path>
                </g>
            </g>
        </g>
    </g>
</svg>